<svg width="24" height="24" viewBox="0 0 24 24" fill="none" xmlns="http://www.w3.org/2000/svg">
<path d="M19 4H5C3.89543 4 3 4.89543 3 6V20C3 21.1046 3.89543 22 5 22H19C20.1046 22 21 21.1046 21 20V6C21 4.89543 20.1046 4 19 4Z" stroke="white" stroke-width="2" stroke-linecap="round" stroke-linejoin="round"/>
<path d="M16 2V6" stroke="white" stroke-width="2" stroke-linecap="round" stroke-linejoin="round"/>
<path d="M8 2V6" stroke="white" stroke-width="2" stroke-linecap="round" stroke-linejoin="round"/>
<g clip-path="url(#clip0_29227_92)">
<path d="M11.9997 15.25C14.0835 15.25 14.9163 13.5834 14.9163 11.0834V9.41669C14.9163 9.41669 13.3899 9.41669 11.9997 9.41669C10.6094 9.41669 9.08301 9.41669 9.08301 9.41669V11.0834C9.08301 13.5834 9.91586 15.25 11.9997 15.25Z" stroke="white" stroke-linecap="round" stroke-linejoin="round"/>
<line x1="12.083" y1="15.3333" x2="12.083" y2="18.5" stroke="white" stroke-linecap="round"/>
<line x1="10.417" y1="18.5" x2="13.5837" y2="18.5" stroke="white" stroke-linecap="round"/>
</g>
<defs>
<clipPath id="clip0_29227_92">
<rect width="10" height="10" fill="white" transform="translate(7 9)"/>
</clipPath>
</defs>
</svg>
