<svg width="42" height="42" viewBox="0 0 42 42" fill="none" xmlns="http://www.w3.org/2000/svg">
<path fill-rule="evenodd" clip-rule="evenodd" d="M6.77316 9.53397C5.87189 10.7723 5.93489 12.3588 6.90266 14.4839C7.20192 15.1433 6.91141 15.9199 6.25165 16.2208C5.59013 16.5199 4.81486 16.2313 4.51385 15.5701C3.13657 12.5494 3.16282 10.0272 4.59085 8.08047C5.12287 7.19017 8.4672 3.31941 11.339 3.50656C12.242 3.58177 13.0681 4.00156 13.8433 4.75717C14.6694 5.56351 18.1379 9.78235 18.4162 11.1169C18.7152 12.5517 18.0708 13.6721 17.6002 14.4905L17.5989 14.4927C17.1352 15.299 16.9742 15.6436 17.1334 16.0791C18.3042 18.9424 20.1137 21.2827 22.4956 22.9828C23.0853 23.4061 23.2201 24.2247 22.7983 24.8141C22.5428 25.171 22.1403 25.3634 21.7308 25.3634C21.4648 25.3634 21.1988 25.2829 20.9678 25.1185C18.1782 23.1228 16.0641 20.3994 14.6834 17.0219C14.0761 15.3515 14.7971 14.0991 15.3239 13.1844C15.7194 12.4987 15.9381 12.0894 15.8454 11.6521C15.6004 11.0207 13.0418 7.64319 12.0093 6.63746C11.6908 6.32437 11.3915 6.14071 11.1693 6.12322C9.91624 6.09349 7.35417 8.57022 6.77316 9.53397ZM30.8833 23.5784C32.2239 23.8565 36.4397 27.3232 37.2465 28.1471C38.006 28.9237 38.426 29.751 38.4978 30.6028C38.6115 33.8264 34.2942 37.1952 33.7989 37.4785C32.8574 38.1572 31.7531 38.5 30.5106 38.5C29.2751 38.5 27.903 38.1607 26.4172 37.468C20.7033 35.0962 12.0616 27.4054 7.19999 20.3478C6.78873 19.7514 6.93924 18.9345 7.536 18.5235C8.13452 18.1177 8.95179 18.2646 9.3613 18.8611C13.9027 25.4534 22.1979 32.8749 27.476 35.0683C29.6111 36.06 31.2001 36.1212 32.3831 35.2729C33.3054 34.7149 35.9252 32.1123 35.878 30.7585C35.8622 30.5993 35.6802 30.3002 35.3705 29.9836C34.3624 28.9516 30.9796 26.3927 30.2726 26.1268C29.7143 26.0079 29.1333 26.3472 28.2478 26.9052L27.7998 27.1833C27.1785 27.5559 26.3717 27.3582 25.9972 26.7355C25.6245 26.1163 25.824 25.31 26.4452 24.9357L26.8495 24.6856C27.8295 24.0681 29.1823 23.2251 30.8833 23.5784Z" fill="white"/>
</svg>
