<svg width="24" height="24" viewBox="0 0 24 24" fill="none" xmlns="http://www.w3.org/2000/svg">
<path d="M16.0002 14V19H8.00024V14" stroke="white" stroke-linecap="round" stroke-linejoin="round"/>
<path d="M16.9998 11.5H6.99976V14H16.9998V11.5Z" stroke="white" stroke-linecap="round" stroke-linejoin="round"/>
<path d="M12 19V11.5" stroke="white" stroke-linecap="round" stroke-linejoin="round"/>
<path d="M11.9998 11.5H9.74976C9.41824 11.5 9.10029 11.3683 8.86587 11.1339C8.63145 10.8995 8.49976 10.5815 8.49976 10.25C8.49976 9.91848 8.63145 9.60054 8.86587 9.36612C9.10029 9.1317 9.41824 9 9.74976 9C11.4998 9 11.9998 11.5 11.9998 11.5Z" stroke="white" stroke-linecap="round" stroke-linejoin="round"/>
<path d="M12 11.5H14.25C14.5815 11.5 14.8995 11.3683 15.1339 11.1339C15.3683 10.8995 15.5 10.5815 15.5 10.25C15.5 9.91848 15.3683 9.60054 15.1339 9.36612C14.8995 9.1317 14.5815 9 14.25 9C12.5 9 12 11.5 12 11.5Z" stroke="white" stroke-linecap="round" stroke-linejoin="round"/>
<path d="M19 4H5C3.89543 4 3 4.89543 3 6V20C3 21.1046 3.89543 22 5 22H19C20.1046 22 21 21.1046 21 20V6C21 4.89543 20.1046 4 19 4Z" stroke="white" stroke-width="2" stroke-linecap="round" stroke-linejoin="round"/>
<path d="M16 2V6" stroke="white" stroke-width="2" stroke-linecap="round" stroke-linejoin="round"/>
<path d="M8 2V6" stroke="white" stroke-width="2" stroke-linecap="round" stroke-linejoin="round"/>
</svg>
