<svg width="24" height="25" viewBox="0 0 24 25" fill="none" xmlns="http://www.w3.org/2000/svg">
<path fill-rule="evenodd" clip-rule="evenodd" d="M2.24796 24.0957V11.5019C1.85441 11.6672 1.4151 11.688 1.00773 11.5605C0.73839 11.4705 0.500942 11.3043 0.324131 11.082C0.14724 10.8568 0.0381673 10.5858 0.00967844 10.3008C-0.0119127 10.0417 0.0184268 9.78096 0.0989186 9.53378C0.17941 9.28661 0.308435 9.05799 0.478428 8.86132C0.498059 8.83682 0.520329 8.81455 0.544835 8.79492L11.6894 0.107418C11.7605 0.0419901 11.8525 0.00392176 11.9491 -1.2383e-05C12.0457 -0.00394652 12.1405 0.0265088 12.2167 0.0859337L23.3847 8.76953C23.4023 8.78292 23.4187 8.79796 23.4335 8.81445C23.6566 9.02997 23.8214 9.29849 23.9126 9.59495C24.0037 9.89141 24.0183 10.2061 23.955 10.5098C23.8941 10.7621 23.772 10.9955 23.5995 11.1894C23.4279 11.3829 23.2102 11.53 22.9667 11.6172C22.7506 11.6909 22.5219 11.7207 22.2941 11.7046C22.0664 11.6884 21.8441 11.6269 21.6405 11.5234V24.0644H20.5468V11.0508C20.5468 10.8555 12.8866 4.80078 12.0409 4.13867C11.1444 4.82031 3.34171 10.8281 3.34171 11.082V24.0996H2.24796V24.0957ZM9.0839 20.7734L10.955 18.5059L11.8124 19.5957L10.1562 21.6953C9.5253 22.498 8.35538 21.6504 9.07804 20.7734H9.0839ZM11.2675 15.6074C11.4452 15.0215 11.3651 14.5293 10.6952 13.791L9.05851 11.8223C8.82608 11.5508 8.27726 11.9512 8.50772 12.2812L9.81632 13.8926C9.86812 13.9547 9.8931 14.0349 9.88578 14.1155C9.87845 14.1961 9.83942 14.2705 9.77726 14.3223C9.71509 14.3741 9.6349 14.399 9.55432 14.3917C9.47374 14.3844 9.39937 14.3454 9.34757 14.2832L7.99405 12.6172C7.7421 12.3281 7.2128 12.709 7.48624 13.0391C7.87687 13.498 8.4628 14.248 8.83976 14.707C8.87198 14.7305 8.89846 14.761 8.9172 14.7962C8.93594 14.8314 8.94644 14.8704 8.94793 14.9103C8.94942 14.9501 8.94185 14.9898 8.92579 15.0263C8.90973 15.0628 8.8856 15.0952 8.85521 15.121C8.82482 15.1468 8.78898 15.1654 8.75036 15.1754C8.71175 15.1854 8.67138 15.1865 8.63229 15.1786C8.5932 15.1707 8.5564 15.154 8.52468 15.1299C8.49295 15.1057 8.46712 15.0746 8.44913 15.0391L7.10538 13.3828C7.05949 13.3394 7.00312 13.3086 6.94178 13.2935C6.88044 13.2784 6.81623 13.2795 6.75543 13.2966C6.69462 13.3137 6.63929 13.3463 6.59485 13.3912C6.55041 13.4361 6.51837 13.4918 6.50187 13.5527C6.41007 13.8203 6.63468 14.0156 6.78897 14.2129L8.28897 16.1504C8.75382 16.6894 9.26554 17.0078 9.87882 16.8281C9.99408 16.7877 10.1042 16.734 10.2069 16.668L14.2343 21.8691C14.2882 21.9346 14.3546 21.9888 14.4296 22.0284C14.5046 22.068 14.5867 22.0924 14.6712 22.1C14.7557 22.1076 14.8409 22.0984 14.9218 22.0728C15.0027 22.0473 15.0777 22.0059 15.1425 21.9512L15.205 21.9004C15.2785 21.8398 15.3392 21.7654 15.3837 21.6812C15.4282 21.5971 15.4557 21.5049 15.4644 21.4102C15.4731 21.3154 15.4629 21.2198 15.4345 21.1289C15.4061 21.0381 15.3599 20.9538 15.2987 20.8808L11.0214 15.9766C11.1272 15.8712 11.2109 15.7456 11.2675 15.6074ZM12.4081 16.7402L13.0722 15.9355C12.2187 13.8223 15.3808 11.0019 16.912 12.2988C18.7753 13.875 16.0155 17.6719 14.0624 16.7344L13.2812 17.7324L12.412 16.7402H12.4081Z" fill="white"/>
</svg>
