<svg width="16" height="16" viewBox="0 0 16 16" fill="none" xmlns="http://www.w3.org/2000/svg">
<path fill-rule="evenodd" clip-rule="evenodd" d="M3.49997 1.75C3.49997 2.7165 2.71648 3.5 1.74999 3.5C0.783496 3.5 0 2.7165 0 1.75C0 0.783502 0.783496 0 1.74999 0C2.71648 0 3.49997 0.783502 3.49997 1.75ZM0 5H3.57797V16H0V5ZM13.3239 5.129C13.3112 5.125 13.2988 5.12089 13.2863 5.11678C13.2615 5.10856 13.2366 5.10033 13.2099 5.093C13.1619 5.082 13.1139 5.073 13.0649 5.065C12.8749 5.027 12.6669 5 12.4229 5C10.3369 5 9.01393 6.517 8.57793 7.103V5H4.99996V16H8.57793V10C8.57793 10 11.2819 6.234 12.4229 9V16H15.9999V8.577C15.9999 6.915 14.8609 5.53 13.3239 5.129Z" fill="white"/>
</svg>
