<svg width="40" height="40" viewBox="0 0 40 40" fill="none" xmlns="http://www.w3.org/2000/svg">
<path fill-rule="evenodd" clip-rule="evenodd" d="M36.6667 17.178C36.6667 17.8342 36.1386 18.3662 35.4872 18.3662L35.4725 18.3365C35.1597 18.3365 34.8597 18.2113 34.6385 17.9885C34.4173 17.7657 34.2931 17.4635 34.2931 17.1483V14.7424C34.2531 10.699 31.0092 7.4311 26.9954 7.39086H13.0046C8.99088 7.4311 5.74689 10.699 5.70695 14.7424V25.2573C5.74689 29.3007 8.99088 32.5686 13.0046 32.6088H26.9954C31.0092 32.5686 34.2531 29.3007 34.2931 25.2573C34.3606 24.6483 34.8716 24.1878 35.4799 24.1878C36.0881 24.1878 36.5992 24.6483 36.6667 25.2573C36.6505 30.6312 32.33 34.9836 26.9954 34.9999H13.0046C7.66669 34.9918 3.34149 30.6346 3.33337 25.2573V14.7424C3.33337 9.36168 7.66333 4.99976 13.0046 4.99976H26.9954C32.33 5.01607 36.6505 9.36845 36.6667 14.7424V17.178ZM21.231 19.7622L28.0864 14.2374H28.1011C28.6116 13.8287 29.3532 13.908 29.7671 14.4157C29.9642 14.6631 30.0549 14.9798 30.0189 15.2951C29.9829 15.6103 29.8232 15.898 29.5754 16.0939L22.72 21.6335C20.9769 23.0466 18.4924 23.0466 16.7492 21.6335L9.87914 16.0939C9.3752 15.677 9.29645 14.9299 9.70223 14.4157C9.89621 14.1692 10.1803 14.0115 10.4908 13.978C10.8012 13.9445 11.112 14.038 11.3534 14.2374L18.2825 19.7622C19.148 20.4463 20.3655 20.4463 21.231 19.7622Z" fill="white"/>
</svg>
